<svg
    width="24"
    height="24"
    viewBox="0 0 24 24"
    fill="none"
    xmlns="http://www.w3.org/2000/svg">
    <path
        d="M23.7723 22.6943L17.5759 16.5969C19.1985 14.834 20.1955 12.5024 20.1955 9.93682C20.1947 4.44852 15.6742 0 10.0974 0C4.52055 0 0 4.44852 0 9.93682C0 15.4251 4.52055 19.8736 10.0974 19.8736C12.5069 19.8736 14.7169 19.0402 16.4529 17.6546L22.6733 23.776C22.9764 24.0746 23.4685 24.0746 23.7716 23.776C23.8437 23.7056 23.901 23.6215 23.9401 23.5287C23.9792 23.4358 23.9994 23.3361 23.9995 23.2353C23.9996 23.1345 23.9795 23.0348 23.9405 22.9419C23.9015 22.849 23.8443 22.7648 23.7723 22.6943ZM10.0974 18.3448C5.37877 18.3448 1.55362 14.5804 1.55362 9.93682C1.55362 5.29321 5.37877 1.52884 10.0974 1.52884C14.816 1.52884 18.6411 5.29321 18.6411 9.93682C18.6411 14.5804 14.816 18.3448 10.0974 18.3448Z"
        fill="#F7ECE1"/>
</svg>
